<?xml version="1.0" standalone="no"?>
<!DOCTYPE svg PUBLIC "-//W3C//DTD SVG 20010904//EN"
 "http://www.w3.org/TR/2001/REC-SVG-20010904/DTD/svg10.dtd">
<svg version="1.0" xmlns="http://www.w3.org/2000/svg"
 width="192.000000pt" height="192.000000pt" viewBox="0 0 192.000000 192.000000"
 preserveAspectRatio="xMidYMid meet">
<metadata>
Created by potrace 1.14, written by Peter Selinger 2001-2017
</metadata>
<g transform="translate(0.000000,192.000000) scale(0.100000,-0.100000)"
fill="#000000" stroke="none">
<path d="M917 1883 c-4 -3 -7 -19 -7 -35 0 -37 -17 -36 -25 2 -4 20 -13 30
-25 30 -17 0 -17 -3 1 -87 21 -94 25 -163 10 -163 -20 0 -49 58 -55 110 -14
115 -18 130 -32 130 -10 0 -14 -13 -14 -42 l-1 -43 -20 37 c-12 24 -24 35 -33
32 -12 -5 -10 -19 14 -82 42 -113 41 -113 89 -175 l44 -58 -17 -75 c-10 -41
-20 -74 -23 -74 -2 0 -29 21 -59 47 l-54 47 0 85 c0 48 -7 108 -15 136 -9 28
-20 67 -26 88 -14 54 -41 51 -33 -5 5 -41 5 -42 -11 -23 -9 11 -20 27 -25 35
-7 12 -11 12 -21 3 -10 -10 -2 -30 35 -94 40 -69 47 -87 41 -115 -3 -19 -9
-34 -13 -34 -12 0 -49 62 -83 138 -18 42 -38 72 -46 72 -15 0 -14 -18 4 -67 4
-13 -3 -10 -26 11 -23 23 -34 27 -43 18 -8 -8 3 -29 49 -84 33 -40 85 -107
115 -148 31 -41 88 -105 127 -142 39 -37 71 -71 71 -75 1 -5 7 -50 14 -100 7
-51 9 -93 4 -93 -5 0 -42 21 -82 47 l-73 46 -38 115 c-26 78 -51 132 -79 171
-23 31 -65 93 -95 139 -29 45 -57 82 -62 82 -17 0 -19 -21 -3 -51 l16 -32 -35
22 c-25 15 -38 18 -42 10 -4 -6 28 -45 79 -93 91 -87 105 -111 59 -100 -52 11
-58 15 -118 84 -44 51 -63 66 -72 58 -10 -8 -8 -16 7 -38 27 -38 25 -42 -10
-22 -23 13 -32 14 -41 5 -7 -7 -11 -14 -8 -16 77 -56 180 -112 234 -127 37
-11 70 -22 73 -24 6 -7 42 -137 42 -153 0 -9 -8 -12 -22 -9 -13 3 -43 8 -68
11 -44 5 -48 9 -89 75 -30 49 -64 87 -118 130 -42 33 -79 60 -84 60 -16 0 -9
-27 11 -45 29 -26 25 -36 -11 -23 -22 7 -34 7 -42 -1 -13 -13 -17 -11 77 -52
60 -26 84 -42 101 -69 22 -34 22 -35 3 -38 -10 -2 -62 22 -114 52 -52 31 -97
56 -100 56 -2 0 -4 -8 -4 -18 0 -10 11 -25 25 -32 35 -19 31 -27 -11 -26 -69
2 -46 -20 43 -44 48 -13 126 -38 173 -56 47 -18 128 -40 179 -49 89 -15 100
-20 190 -82 136 -93 126 -78 111 -173 -12 -76 -14 -81 -34 -76 -11 3 -31 6
-43 6 -14 0 -43 26 -89 81 -94 111 -221 198 -357 246 -56 19 -129 46 -161 59
-33 13 -63 24 -68 24 -19 0 -6 -31 17 -42 35 -16 31 -28 -10 -28 -23 0 -35 -5
-35 -14 0 -9 28 -16 101 -25 55 -6 112 -17 127 -25 l26 -14 -38 -16 c-35 -15
-44 -14 -129 4 -50 11 -93 20 -95 20 -2 0 -2 -7 0 -17 2 -9 19 -22 38 -28 l35
-12 -37 -8 c-24 -5 -38 -13 -38 -23 0 -25 187 -10 272 22 l67 25 55 -42 c31
-23 55 -44 56 -47 0 -9 -100 -70 -115 -70 -8 0 -38 9 -67 21 -71 28 -268 40
-268 17 0 -10 14 -18 38 -23 l37 -8 -35 -12 c-19 -6 -35 -18 -35 -26 0 -16 -6
-16 107 5 81 16 89 16 119 0 l33 -16 -25 -14 c-13 -7 -53 -16 -89 -20 -36 -5
-68 -9 -72 -10 -5 -1 -21 -2 -38 -3 -49 -2 -38 -29 13 -33 l42 -3 -32 -18
c-18 -10 -33 -24 -33 -32 0 -8 2 -15 5 -15 3 0 51 17 107 39 57 21 128 46 158
56 30 10 90 38 133 63 44 25 81 41 85 36 5 -5 25 -31 46 -57 l38 -48 -22 -24
c-33 -35 -53 -39 -126 -25 -63 12 -67 11 -234 -36 -164 -46 -208 -71 -124 -68
l38 2 -28 -23 c-15 -12 -26 -30 -24 -39 2 -13 19 -7 91 34 48 28 101 53 118
57 l30 6 -17 -35 c-14 -30 -30 -41 -105 -73 -49 -21 -89 -42 -89 -47 0 -15 25
-19 53 -9 32 12 35 1 7 -24 -19 -17 -27 -45 -14 -45 23 0 163 124 201 178 49
67 50 68 118 42 23 -9 25 -13 19 -52 -4 -24 -9 -46 -13 -49 -3 -4 -31 -14 -61
-24 -42 -13 -189 -98 -229 -132 -3 -2 0 -8 6 -14 8 -8 20 -7 42 4 36 18 38 15
11 -23 -17 -23 -18 -30 -6 -39 11 -9 17 -8 28 7 43 61 117 130 147 137 31 7
33 6 26 -16 -4 -13 -41 -56 -83 -96 -55 -51 -74 -75 -66 -83 7 -7 18 -5 36 10
36 28 41 25 22 -11 -12 -23 -13 -34 -4 -43 7 -7 13 -7 18 -1 123 179 178 279
197 360 15 66 18 72 64 102 47 31 50 31 102 20 53 -12 55 -14 92 -82 45 -81
44 -64 23 -385 -8 -113 -12 -207 -9 -210 7 -8 171 -6 179 2 4 4 -1 122 -10
261 l-17 254 41 75 40 75 55 11 c55 11 56 11 104 -23 45 -32 49 -40 61 -97 7
-35 26 -88 43 -118 47 -86 155 -250 165 -250 18 0 21 14 7 41 -21 40 -19 43
13 20 18 -13 33 -17 42 -11 11 7 -4 25 -58 76 -40 37 -80 80 -88 96 l-16 30
34 -7 c24 -4 51 -26 100 -78 53 -57 70 -69 79 -60 10 10 9 16 -3 30 -32 37
-30 44 6 26 27 -12 39 -14 47 -6 15 15 -136 114 -219 144 -68 25 -82 41 -82
90 0 35 2 37 47 48 28 8 48 8 52 3 42 -66 81 -113 118 -142 25 -19 61 -48 80
-64 25 -22 37 -26 45 -18 9 9 4 20 -18 43 l-29 30 28 -10 c38 -15 57 -14 57 2
0 8 -38 31 -86 52 -62 28 -89 46 -100 66 -7 15 -14 31 -14 34 0 16 68 -11 143
-55 70 -41 83 -46 91 -33 6 11 4 18 -5 24 -8 4 -23 15 -34 23 -19 15 -18 16
21 10 31 -5 42 -2 47 9 4 11 -14 20 -81 37 -48 12 -123 34 -167 48 -76 23 -84
24 -157 12 -75 -12 -78 -12 -107 11 -16 13 -30 29 -30 35 -1 11 77 114 86 114
2 0 35 -18 71 -40 37 -21 114 -55 172 -76 58 -20 132 -47 164 -60 43 -17 63
-21 70 -13 8 7 7 13 -4 19 -8 5 -24 16 -35 24 -19 15 -18 15 18 16 25 0 37 5
37 14 0 10 -19 16 -62 21 -90 9 -167 25 -173 36 -3 5 9 16 27 25 30 14 40 14
123 -4 64 -14 92 -17 97 -9 10 16 1 25 -33 32 -23 5 -28 9 -18 16 8 5 24 9 37
9 14 0 22 6 22 16 0 27 -195 14 -280 -19 l-64 -25 -53 36 c-29 19 -53 38 -53
42 0 4 24 26 53 48 l53 39 64 -24 c83 -30 280 -45 280 -21 0 8 -16 19 -37 25
l-38 10 33 8 c22 5 32 13 32 27 0 14 -5 18 -17 15 -10 -3 -53 -13 -95 -22 -72
-15 -79 -15 -109 1 -30 15 -31 17 -15 30 19 13 50 19 159 29 48 5 67 11 67 21
0 9 -11 14 -35 14 -43 0 -45 13 -5 30 30 13 37 24 21 34 -5 3 -55 -12 -112
-33 -57 -21 -129 -47 -159 -57 -87 -28 -235 -136 -310 -226 -38 -45 -75 -80
-90 -83 -68 -17 -67 -17 -78 28 -6 23 -13 60 -17 82 l-6 40 113 77 c108 74
117 78 208 94 52 9 133 32 180 50 47 17 122 42 168 54 57 15 82 27 82 37 0 12
-8 14 -35 10 -42 -7 -43 -3 -10 26 15 13 22 27 17 34 -5 8 -36 -5 -102 -43
-52 -30 -102 -54 -112 -54 -17 0 -17 2 -1 35 13 28 31 41 100 72 89 40 113 71
46 58 l-38 -7 24 26 c19 20 22 29 13 38 -8 8 -19 5 -44 -14 -78 -60 -139 -123
-168 -173 -17 -30 -35 -57 -40 -60 -8 -5 -133 -24 -137 -21 -1 1 7 38 19 82
l21 81 74 22 c85 25 251 127 233 145 -7 7 -21 4 -46 -7 -36 -18 -38 -11 -6 25
8 10 12 24 7 35 -6 15 -19 5 -78 -58 -53 -56 -81 -78 -104 -83 -18 -3 -33 -3
-33 0 0 13 31 64 44 71 8 4 40 32 71 62 37 35 53 57 47 63 -7 7 -21 3 -41 -11
-34 -24 -38 -20 -16 19 9 17 10 29 3 37 -8 10 -36 -25 -112 -137 -89 -131
-106 -162 -136 -256 l-35 -108 -74 -48 c-40 -26 -78 -48 -84 -48 -6 0 -7 15
-4 38 4 20 9 64 13 97 6 59 7 61 98 155 51 52 126 139 167 193 41 54 82 108
93 121 29 38 9 53 -26 19 l-30 -28 7 43 c12 71 -16 50 -54 -41 -32 -78 -64
-127 -83 -127 -4 0 -8 18 -8 39 0 29 12 60 46 117 35 59 42 79 32 85 -9 6 -21
0 -36 -19 l-23 -27 3 35 c2 25 -1 36 -12 38 -11 2 -22 -24 -43 -100 -23 -85
-27 -115 -22 -173 l5 -70 -57 -48 c-31 -26 -60 -44 -64 -40 -4 5 -15 39 -23
76 l-16 68 48 62 c49 63 120 226 107 247 -11 17 -22 11 -35 -20 -16 -40 -32
-38 -28 2 2 24 -1 33 -13 36 -14 3 -18 -11 -24 -88 -6 -77 -11 -96 -33 -122
l-26 -30 -8 23 c-6 16 -2 56 12 122 12 55 19 101 16 104 -11 11 -36 -7 -36
-26 0 -35 -18 -32 -24 4 -4 21 -13 35 -21 35 -23 0 -9 -322 20 -467 l22 -113
-29 -161 c-28 -160 -28 -161 -13 -275 l15 -115 -26 -41 -26 -40 -26 38 c-25
38 -25 38 -14 134 17 131 16 155 -14 316 l-26 142 26 132 c21 108 26 161 26
291 0 145 -4 172 -23 152z"/>
</g>
</svg>
